<svg xmlns="http://www.w3.org/2000/svg" xmlns:xlink="http://www.w3.org/1999/xlink" version="1.1" width="256" height="256" viewBox="0 0 256 256" xml:space="preserve">

<defs>
</defs>
<g style="stroke: none; stroke-width: 0; stroke-dasharray: none; stroke-linecap: butt; stroke-linejoin: miter; stroke-miterlimit: 10; fill: none; fill-rule: nonzero; opacity: 1;" transform="translate(1.4065934065934016 1.4065934065934016) scale(2.81 2.81)" >
	<path d="M 45 73.264 c -14.869 0 -29.775 -8.864 -44.307 -26.346 c -0.924 -1.112 -0.924 -2.724 0 -3.836 C 15.225 25.601 30.131 16.737 45 16.737 c 14.868 0 29.775 8.864 44.307 26.345 c 0.925 1.112 0.925 2.724 0 3.836 C 74.775 64.399 59.868 73.264 45 73.264 z M 6.934 45 C 19.73 59.776 32.528 67.264 45 67.264 c 12.473 0 25.27 -7.487 38.066 -22.264 C 70.27 30.224 57.473 22.737 45 22.737 C 32.528 22.737 19.73 30.224 6.934 45 z" style="stroke: none; stroke-width: 1; stroke-dasharray: none; stroke-linecap: butt; stroke-linejoin: miter; stroke-miterlimit: 10; fill: rgb(0,0,0); fill-rule: nonzero; opacity: 1;" transform=" matrix(1 0 0 1 0 0) " stroke-linecap="round" />
	<circle cx="45" cy="45" r="14" style="stroke: none; stroke-width: 1; stroke-dasharray: none; stroke-linecap: butt; stroke-linejoin: miter; stroke-miterlimit: 10; fill: rgb(0,0,0); fill-rule: nonzero; opacity: 1;" transform="  matrix(1 0 0 1 0 0) "/>
</g>
</svg>