<svg width="20" height="20" viewBox="0 0 20 20" fill="none" xmlns="http://www.w3.org/2000/svg">
<path d="M18.0917 16.9083L3.09168 1.90828C3.01398 1.83059 2.92174 1.76895 2.82022 1.7269C2.7187 1.68485 2.60989 1.66321 2.50001 1.66321C2.39013 1.66321 2.28132 1.68485 2.1798 1.7269C2.07829 1.76895 1.98604 1.83059 1.90835 1.90828C1.75143 2.0652 1.66327 2.27803 1.66327 2.49995C1.66327 2.72187 1.75143 2.9347 1.90835 3.09162L5.24168 6.42495C4.18421 8.05779 3.60672 9.95486 3.57501 11.9C3.58375 13.602 4.26321 15.2321 5.46601 16.4364C6.6688 17.6408 8.29793 18.3223 10 18.3333C10.9309 18.3374 11.8513 18.1373 12.6965 17.7471C13.5417 17.3569 14.291 16.7861 14.8917 16.075L16.9083 18.0916C16.9858 18.1697 17.078 18.2317 17.1795 18.274C17.2811 18.3163 17.39 18.3381 17.5 18.3381C17.61 18.3381 17.7189 18.3163 17.8205 18.274C17.922 18.2317 18.0142 18.1697 18.0917 18.0916C18.1698 18.0141 18.2318 17.922 18.2741 17.8204C18.3164 17.7189 18.3382 17.61 18.3382 17.5C18.3382 17.3899 18.3164 17.281 18.2741 17.1795C18.2318 17.0779 18.1698 16.9858 18.0917 16.9083ZM10 16.6666C8.72986 16.6644 7.51236 16.1589 6.61423 15.2607C5.71609 14.3626 5.21055 13.1451 5.20835 11.875C5.23694 10.3728 5.65935 8.90438 6.43335 7.61662L13.7167 14.8916C13.2713 15.4488 12.7056 15.898 12.0619 16.2054C11.4182 16.5128 10.7133 16.6705 10 16.6666ZM9.04168 4.36662C9.41668 4.01662 9.75001 3.74162 10 3.53328C11.1917 4.46662 14.275 7.22495 14.7333 10.9333C14.7579 11.1365 14.8564 11.3236 15.0101 11.4589C15.1638 11.5942 15.3619 11.6681 15.5667 11.6666H15.6667C15.8852 11.6395 16.0842 11.527 16.22 11.3537C16.3559 11.1804 16.4176 10.9603 16.3917 10.7416C15.7417 5.38328 10.6833 1.94995 10.475 1.80828C10.3372 1.71514 10.1747 1.66536 10.0083 1.66536C9.84201 1.66536 9.67948 1.71514 9.54168 1.80828C8.96754 2.21809 8.42185 2.66633 7.90835 3.14995C7.76409 3.30411 7.68372 3.50727 7.68348 3.71839C7.68324 3.92952 7.76314 4.13286 7.90705 4.28735C8.05095 4.44183 8.24813 4.53594 8.45874 4.55065C8.66935 4.56537 8.87769 4.49959 9.04168 4.36662Z" fill="white"/>
</svg>
