<?xml version="1.0" encoding="utf-8"?>
<!-- Generator: Adobe Illustrator 27.9.1, SVG Export Plug-In . SVG Version: 6.00 Build 0)  -->
<svg version="1.1" id="Layer_1" xmlns="http://www.w3.org/2000/svg" xmlns:xlink="http://www.w3.org/1999/xlink" x="0px" y="0px"
	 viewBox="0 0 48 48" style="enable-background:new 0 0 48 48;" xml:space="preserve">
<style type="text/css">
	.st0{fill:#333333;}
</style>
<g>
	<g>
		<path class="st0" d="M24,39.2c-2,0-3.6-0.3-5.2-1c-1.5-0.6-2.8-1.6-4.2-3c-4.1-4.1-3-10.3,0-14.7c1.1-1.5,2.2-2.9,3.5-4.3
			c0.5-0.5,1-1.1,1.5-1.7C21,13,22.1,11.3,23,9.3c0.2-0.3,0.5-0.6,0.9-0.6s0.7,0.2,0.9,0.6c1.1,2.2,2.3,3.8,3.5,5.3
			c0.2,0.3,0.5,0.5,0.7,0.8c0.2,0.3,0.5,0.5,0.7,0.8c1.3,1.2,2.4,2.5,3.7,4.3c0,0,0,0,0,0c2.9,4.4,4.1,10.6,0,14.7
			c-1.5,1.5-2.8,2.4-4.2,3C27.6,38.9,26,39.2,24,39.2z M23.9,11.9c-0.8,1.4-1.7,2.7-2.9,4c-0.5,0.6-1,1.2-1.5,1.8
			c-1.2,1.4-2.3,2.6-3.3,4.1c-2.5,3.7-3.5,8.8-0.2,12.1c1.3,1.3,2.4,2.1,3.6,2.6c1.3,0.6,2.7,0.8,4.4,0.8c1.7,0,3.1-0.3,4.4-0.8
			c1.2-0.5,2.3-1.3,3.6-2.6c3.3-3.3,2.3-8.5-0.2-12.1c-1.2-1.7-2.2-2.9-3.5-4c0,0-0.1-0.1-0.1-0.1c-0.2-0.3-0.5-0.6-0.7-0.8
			c-0.3-0.3-0.5-0.6-0.8-0.9C25.8,14.7,24.8,13.4,23.9,11.9z"/>
	</g>
</g>
</svg>
