<?xml version="1.0" encoding="utf-8"?>
<!-- Generator: Adobe Illustrator 27.9.1, SVG Export Plug-In . SVG Version: 6.00 Build 0)  -->
<svg version="1.1" id="Layer_1" xmlns="http://www.w3.org/2000/svg" xmlns:xlink="http://www.w3.org/1999/xlink" x="0px" y="0px"
	 viewBox="0 0 48 45" style="enable-background:new 0 0 48 45;" xml:space="preserve">
<style type="text/css">
	.st0{fill-rule:evenodd;clip-rule:evenodd;fill:#333333;}
	.st1{fill:#333333;fill-opacity:0.15;}
	.st2{fill:#333333;}
</style>
<g>
	<path class="st0" d="M11.5,35l-3.4,3.2c-0.4,0.3-0.9,0.3-1.3,0l0,0c-0.4-0.4-0.4-1,0-1.4l3.3-3.1H8.9c-0.5,0-0.9-0.4-0.9-1l0,0
		c0-0.5,0.4-1,0.9-1h3.6c0.6,0,1,0.4,1,0.9V36c0,0.5-0.4,1-0.9,1h-0.1c-0.5,0-0.9-0.4-0.9-1V35z M13.5,12.1V8.9c0-0.6-0.4-1-1-1h0
		c-0.6,0-1,0.4-1,1v1L8.1,6.7c-0.4-0.3-0.9-0.3-1.3,0l0,0c-0.4,0.4-0.4,1,0,1.4l3.3,3H8.9c-0.5,0-0.9,0.4-0.9,0.9v0
		C8,12.6,8.4,13,8.9,13h3.6C13.1,13.1,13.5,12.7,13.5,12.1z M35.5,7.9c-0.5,0-0.9,0.4-0.9,0.9v3.3c0,0.5,0.4,0.9,1,0.9h3.5
		c0.5,0,1-0.4,1-0.9v0c0-0.5-0.4-0.9-1-0.9h-1.2l3.3-3c0.4-0.4,0.4-1,0-1.4l0,0c-0.4-0.3-0.9-0.3-1.3,0l-3.4,3.2V8.9
		c0-0.5-0.4-0.9-1-0.9H35.5z M34.5,35.4v-2.6c0-0.5,0.4-0.9,1-0.9h3.5c0.5,0,1,0.4,1,1l0,0c0,0.5-0.4,1-1,1h-1.2l3.3,3.1
		c0.4,0.4,0.4,1,0,1.4l0,0c-0.4,0.3-0.9,0.3-1.3,0l-3.4-3.2v1c0,0.5-0.4,1-1,1h0c-0.6,0-1-0.5-1-1V35.4z"/>
	<rect x="14.5" y="14" class="st1" width="19" height="16.9"/>
	<path class="st2" d="M23.5,22.4l-6,5.6h13v-2l-2.7-2.6l-1.6,1.5L23.5,22.4z"/>
</g>
</svg>
