<?xml version="1.0" encoding="utf-8"?>
<!-- Generator: Adobe Illustrator 27.9.1, SVG Export Plug-In . SVG Version: 6.00 Build 0)  -->
<svg version="1.1" id="Layer_1" xmlns="http://www.w3.org/2000/svg" xmlns:xlink="http://www.w3.org/1999/xlink" x="0px" y="0px"
	 viewBox="0 0 48 48" style="enable-background:new 0 0 48 48;" xml:space="preserve">
<style type="text/css">
	.st0{opacity:0.15;}
	.st1{fill:#333333;}
	.st2{fill-rule:evenodd;clip-rule:evenodd;fill:#333333;}
</style>
<g>
	<g class="st0">
		<rect x="9.5" y="10" class="st1" width="20" height="19"/>
	</g>
	<g>
		<path class="st1" d="M18.5,19l-6,6h13v-2.2l-2.7-2.7l-1.6,1.6L18.5,19z"/>
	</g>
	<g>
		<path class="st2" d="M28.5,8h-20c-0.6,0-1,0.4-1,1v19h2V10h19V8z"/>
	</g>
	<g>
		<path class="st2" d="M36.8,27.5l2.5-2.5c0.4-0.4,0.4-1,0-1.4l-2.5-2.5c-0.4-0.4-1-0.4-1.4,0l0,0c-0.4,0.4-0.4,1,0,1.4l1.8,1.8
			l-1.8,1.8c-0.4,0.4-0.4,1,0,1.4l0,0C35.8,27.9,36.4,27.9,36.8,27.5z"/>
	</g>
	<g>
		<path class="st2" d="M31.5,25.3h5.7c0.5,0,1-0.4,1-1v0c0-0.5-0.4-1-1-1h-5.7c-0.5,0-1,0.4-1,1v0C30.5,24.9,30.9,25.3,31.5,25.3z"
			/>
	</g>
	<g>
		<path class="st2" d="M21.6,36.3l2.5,2.5c0.4,0.4,1,0.4,1.4,0l2.5-2.5c0.4-0.4,0.4-1,0-1.4l0,0c-0.4-0.4-1-0.4-1.4,0l-1.8,1.8
			L23,34.9c-0.4-0.4-1-0.4-1.4,0l0,0C21.2,35.3,21.2,35.9,21.6,36.3z"/>
	</g>
	<g>
		<path class="st2" d="M23.8,31v6.7h2V31c0-0.5-0.4-1-1-1h0C24.2,30,23.8,30.4,23.8,31z"/>
	</g>
	<g>
		<g>
			<g>
				<rect x="24.8" y="39" class="st1" width="1.1" height="2"/>
			</g>
			<g>
				<path class="st1" d="M37.5,41h-1.9v-2h1.9V41z M33.6,41h-1.9v-2h1.9V41z M29.8,41h-1.9v-2h1.9V41z"/>
			</g>
			<g>
				<path class="st1" d="M40.5,41h-1.1v-2h0.1v-0.1h2V40C41.5,40.6,41.1,41,40.5,41z"/>
			</g>
			<g>
				<path class="st1" d="M41.5,36.7h-2v-2.2h2V36.7z M41.5,32.3h-2V30h2V32.3z M41.5,27.8h-2v-2.2h2V27.8z M41.5,23.4h-2v-2.2h2
					V23.4z M41.5,19h-2v-2.2h2V19z M41.5,14.5h-2v-2.2h2V14.5z"/>
			</g>
			<g>
				<path class="st1" d="M41.5,10.1h-2V10h-0.1V8h1.1c0.6,0,1,0.4,1,1V10.1z"/>
			</g>
			<g>
				<path class="st1" d="M37.5,10h-1.9V8h1.9V10z M33.6,10h-1.9V8h1.9V10z M29.8,10h-1.9V8h1.9V10z"/>
			</g>
			<g>
				<rect x="24.8" y="8" class="st1" width="1.1" height="2"/>
			</g>
		</g>
		<g>
			<g>
				<rect x="24.1" y="8" class="st1" width="1.1" height="2"/>
			</g>
			<g>
				<path class="st1" d="M22.1,10H20V8h2.1V10z M17.9,10h-2.1V8h2.1V10z M13.7,10h-2.1V8h2.1V10z"/>
			</g>
			<g>
				<path class="st1" d="M9.5,10.1h-2V9c0-0.6,0.4-1,1-1h1.1L9.5,10.1L9.5,10.1L9.5,10.1z"/>
			</g>
			<g>
				<path class="st1" d="M9.5,36.7h-2v-2.2h2V36.7z M9.5,32.3h-2V30h2V32.3z M9.5,27.8h-2v-2.2h2V27.8z M9.5,23.4h-2v-2.2h2V23.4z
					 M9.5,19h-2v-2.2h2V19z M9.5,14.5h-2v-2.2h2V14.5z"/>
			</g>
			<g>
				<path class="st1" d="M9.6,41H8.5c-0.6,0-1-0.4-1-1v-1.1h2V39h0.1V41z"/>
			</g>
			<g>
				<path class="st1" d="M22.1,41H20v-2h2.1V41z M17.9,41h-2.1v-2h2.1V41z M13.7,41h-2.1v-2h2.1V41z"/>
			</g>
			<g>
				<rect x="24.1" y="39" class="st1" width="1.1" height="2"/>
			</g>
		</g>
	</g>
</g>
</svg>
