<?xml version="1.0" encoding="utf-8"?>
<!-- Generator: Adobe Illustrator 27.9.1, SVG Export Plug-In . SVG Version: 6.00 Build 0)  -->
<svg version="1.1" id="Layer_1" xmlns="http://www.w3.org/2000/svg" xmlns:xlink="http://www.w3.org/1999/xlink" x="0px" y="0px"
	 viewBox="0 0 48 48" style="enable-background:new 0 0 48 48;" xml:space="preserve">
<style type="text/css">
	.st0{fill:#333333;}
</style>
<g>
	<g>
		<path class="st0" d="M17.6,38.9H9.2c-0.6,0-1-0.4-1-1V10.1c0-0.6,0.4-1,1-1h8.4c0.6,0,1,0.4,1,1s-0.4,1-1,1h-7.4v25.8h7.4
			c0.6,0,1,0.4,1,1S18.2,38.9,17.6,38.9z"/>
	</g>
	<g>
		<path class="st0" d="M38.3,38.9h-1.9v-2h1.9V38.9z M34.5,38.9h-1.9v-2h1.9V38.9z M30.6,38.9h-1.9v-2h1.9V38.9z M39.8,36.4h-2v-1.9
			h2V36.4z M39.8,32.6h-2v-1.9h2V32.6z M39.8,28.7h-2v-1.9h2V28.7z M39.8,24.9h-2V23h2V24.9z M39.8,21.1h-2v-1.9h2V21.1z M39.8,17.2
			h-2v-1.9h2V17.2z M39.8,13.4h-2v-1.9h2V13.4z M38.2,11.1h-1.9v-2h1.9V11.1z M34.4,11.1h-1.9v-2h1.9V11.1z M30.5,11.1h-1.8v-2h1.8
			V11.1z"/>
	</g>
	<g>
		<path class="st0" d="M23.8,41.5c-0.6,0-1-0.4-1-1v-33c0-0.6,0.4-1,1-1s1,0.4,1,1v33C24.8,41.1,24.4,41.5,23.8,41.5z"/>
	</g>
</g>
</svg>
