<?xml version="1.0" encoding="utf-8"?>
<!-- Generator: Adobe Illustrator 27.9.1, SVG Export Plug-In . SVG Version: 6.00 Build 0)  -->
<svg version="1.1" id="Layer_1" xmlns="http://www.w3.org/2000/svg" xmlns:xlink="http://www.w3.org/1999/xlink" x="0px" y="0px"
	 viewBox="0 0 48 48" style="enable-background:new 0 0 48 48;" xml:space="preserve">
<style type="text/css">
	.st0{fill:#333333;}
</style>
<g>
	<g>
		<path class="st0" d="M37.9,18.6c-0.6,0-1-0.4-1-1v-7.4H11.1v7.4c0,0.6-0.4,1-1,1s-1-0.4-1-1V9.2c0-0.6,0.4-1,1-1h27.8
			c0.6,0,1,0.4,1,1v8.4C38.9,18.2,38.5,18.6,37.9,18.6z"/>
	</g>
	<g>
		<path class="st0" d="M36.6,39.8h-1.9v-2h1.9V39.8z M32.7,39.8h-1.9v-2h1.9V39.8z M28.9,39.8h-1.9v-2h1.9V39.8z M25,39.8h-1.9v-2
			H25V39.8z M21.2,39.8h-1.9v-2h1.9V39.8z M17.3,39.8h-1.9v-2h1.9V39.8z M13.5,39.8h-1.9v-2h1.9V39.8z M11.1,38.3h-2v-1.9h2V38.3z
			 M38.9,38.2h-2v-1.9h2V38.2z M11.1,34.5h-2v-1.9h2V34.5z M38.9,34.4h-2v-1.9h2V34.4z M11.1,30.6h-2v-1.9h2V30.6z M38.9,30.5h-2
			v-1.8h2V30.5z"/>
	</g>
	<g>
		<path class="st0" d="M40.5,24.8h-33c-0.6,0-1-0.4-1-1s0.4-1,1-1h33c0.6,0,1,0.4,1,1S41.1,24.8,40.5,24.8z"/>
	</g>
</g>
</svg>
