<?xml version="1.0" encoding="utf-8"?>
<!-- Generator: Adobe Illustrator 27.9.1, SVG Export Plug-In . SVG Version: 6.00 Build 0)  -->
<svg version="1.1" id="Layer_1" xmlns="http://www.w3.org/2000/svg" xmlns:xlink="http://www.w3.org/1999/xlink" x="0px" y="0px"
	 viewBox="0 0 48 48" style="enable-background:new 0 0 48 48;" xml:space="preserve">
<style type="text/css">
	.st0{opacity:0.2;}
	.st1{fill:#333333;}
</style>
<g>
	<g class="st0">
		<rect x="15.4" y="15.4" class="st1" width="18.3" height="17.3"/>
	</g>
	<g>
		<path class="st1" d="M24,24l-5.7,5.8h12.5v-2.1L28.1,25l-1.6,1.6L24,24z"/>
	</g>
	<g>
		<path class="st1" d="M34,33.6c-0.7,0-1.2-0.5-1.2-1.2V15.6H16c-0.7,0-1.2-0.5-1.2-1.2s0.5-1.2,1.2-1.2h18c0.7,0,1.2,0.5,1.2,1.2
			v18C35.2,33.1,34.7,33.6,34,33.6z"/>
	</g>
	<g>
		<path class="st1" d="M34,44.4c-0.7,0-1.2-0.5-1.2-1.2v-9.6c0-0.7,0.5-1.2,1.2-1.2s1.2,0.5,1.2,1.2v9.6
			C35.2,43.9,34.7,44.4,34,44.4z"/>
	</g>
	<g>
		<path class="st1" d="M15.5,15.6H4.8c-0.7,0-1.2-0.5-1.2-1.2s0.5-1.2,1.2-1.2h10.8c0.7,0,1.2,0.5,1.2,1.2S16.2,15.6,15.5,15.6z"/>
	</g>
	<g>
		<path class="st1" d="M43.2,34.8H15.5c-0.7,0-1.2-0.5-1.2-1.2V4.8c0-0.7,0.5-1.2,1.2-1.2s1.2,0.5,1.2,1.2v27.6h26.5
			c0.7,0,1.2,0.5,1.2,1.2S43.9,34.8,43.2,34.8z"/>
	</g>
</g>
</svg>
